<svg version="1.1" xmlns="http://www.w3.org/2000/svg" xmlns:xlink="http://www.w3.org/1999/xlink" width="363" height="318"><defs></defs><g><g transform="translate(-102,-206) scale(1,1)"><path fill="#ffffff" stroke="none" d="M 133.82072727272728 337.68 C 133.82072727272728 332.886167936 137.70656959767274 329 142.5 329 C 147.29343040232726 329 151.17927272727272 332.886167936 151.17927272727272 337.68 C 151.17927272727272 342.473832064 147.29343040232726 346.36 142.5 346.36 C 137.70656959767274 346.36 133.82072727272728 342.473832064 133.82072727272728 337.68 Z"></path></g><g transform="translate(-102,-206) scale(1,1)"><path fill="none" stroke="#000000" d="M 133.82072727272728 337.68 C 133.82072727272728 332.886167936 137.70656959767274 329 142.5 329 C 147.29343040232726 329 151.17927272727272 332.886167936 151.17927272727272 337.68 C 151.17927272727272 342.473832064 147.29343040232726 346.36 142.5 346.36 C 137.70656959767274 346.36 133.82072727272728 342.473832064 133.82072727272728 337.68 Z" stroke-miterlimit="10"></path></g><g transform="translate(-102,-206) scale(1,1)"><path fill="none" stroke="#000000" d="M 142.5 346.36 L 142.5 363.64" stroke-miterlimit="10"></path></g><g transform="translate(-102,-206) scale(1,1)"><path fill="none" stroke="#000000" d="M 133.31018181818183 352.84 L 151.68981818181817 352.84" stroke-miterlimit="10"></path></g><g transform="translate(-102,-206) scale(1,1)"><path fill="none" stroke="#000000" d="M 142.5 363.64 L 129.73636363636365 381" stroke-miterlimit="10"></path></g><g transform="translate(-102,-206) scale(1,1)"><path fill="none" stroke="#000000" d="M 142.5 363.64 L 155.26363636363635 381" stroke-miterlimit="10"></path></g><g transform="translate(-102,-206) scale(1,1)"><g><path fill="none" stroke="none"></path><text fill="#000000" stroke="none" font-family="Arial" font-size="13px" font-style="normal" font-weight="bold" text-decoration="none" x="116.5" y="401.5">句长特征</text></g></g><g transform="translate(-102,-206) scale(1,1)"><path fill="#C0C0C0" stroke="none" d="M 311 240 C 311 230.6111584 333.1619024 223 360.5 223 C 387.8380976 223 410 230.6111584 410 240 C 410 249.3888416 387.8380976 257 360.5 257 C 333.1619024 257 311 249.3888416 311 240 Z" opacity="0.2"></path></g><g transform="translate(-102,-206) scale(1,1)"><path fill="#ffffff" stroke="none" d="M 304 233 C 304 223.6111584 326.1619024 216 353.5 216 C 380.8380976 216 403 223.6111584 403 233 C 403 242.3888416 380.8380976 250 353.5 250 C 326.1619024 250 304 242.3888416 304 233 Z"></path></g><g transform="translate(-102,-206) scale(1,1)"><path fill="none" stroke="#000000" d="M 304 233 C 304 223.6111584 326.1619024 216 353.5 216 C 380.8380976 216 403 223.6111584 403 233 C 403 242.3888416 380.8380976 250 353.5 250 C 326.1619024 250 304 242.3888416 304 233 Z" stroke-miterlimit="10"></path></g><g transform="translate(-102,-206) scale(1,1)"><g><path fill="none" stroke="none"></path><text fill="#000000" stroke="none" font-family="Arial" font-size="13px" font-style="normal" font-weight="bold" text-decoration="none" x="334" y="240">句子数</text></g></g><g transform="translate(-102,-206) scale(1,1)"><path fill="#C0C0C0" stroke="none" d="M 311 312 C 311 302.6111584 333.1619024 295 360.5 295 C 387.8380976 295 410 302.6111584 410 312 C 410 321.3888416 387.8380976 329 360.5 329 C 333.1619024 329 311 321.3888416 311 312 Z" opacity="0.2"></path></g><g transform="translate(-102,-206) scale(1,1)"><path fill="#ffffff" stroke="none" d="M 304 305 C 304 295.6111584 326.1619024 288 353.5 288 C 380.8380976 288 403 295.6111584 403 305 C 403 314.3888416 380.8380976 322 353.5 322 C 326.1619024 322 304 314.3888416 304 305 Z"></path></g><g transform="translate(-102,-206) scale(1,1)"><path fill="none" stroke="#000000" d="M 304 305 C 304 295.6111584 326.1619024 288 353.5 288 C 380.8380976 288 403 295.6111584 403 305 C 403 314.3888416 380.8380976 322 353.5 322 C 326.1619024 322 304 314.3888416 304 305 Z" stroke-miterlimit="10"></path></g><g transform="translate(-102,-206) scale(1,1)"><g><path fill="none" stroke="none"></path><text fill="#000000" stroke="none" font-family="Arial" font-size="13px" font-style="normal" font-weight="bold" text-decoration="none" x="327.5" y="312">平均句长</text></g></g><g transform="translate(-102,-206) scale(1,1)"><path fill="#C0C0C0" stroke="none" d="M 311 376 C 311 366.6111584 344.8024976 359 386.5 359 C 428.1975024 359 462 366.6111584 462 376 C 462 385.3888416 428.1975024 393 386.5 393 C 344.8024976 393 311 385.3888416 311 376 Z" opacity="0.2"></path></g><g transform="translate(-102,-206) scale(1,1)"><path fill="#ffffff" stroke="none" d="M 304 369 C 304 359.6111584 337.8024976 352 379.5 352 C 421.1975024 352 455 359.6111584 455 369 C 455 378.3888416 421.1975024 386 379.5 386 C 337.8024976 386 304 378.3888416 304 369 Z"></path></g><g transform="translate(-102,-206) scale(1,1)"><path fill="none" stroke="#000000" d="M 304 369 C 304 359.6111584 337.8024976 352 379.5 352 C 421.1975024 352 455 359.6111584 455 369 C 455 378.3888416 421.1975024 386 379.5 386 C 337.8024976 386 304 378.3888416 304 369 Z" stroke-miterlimit="10"></path></g><g transform="translate(-102,-206) scale(1,1)"><g><path fill="none" stroke="none"></path><text fill="#000000" stroke="none" font-family="Arial" font-size="13px" font-style="normal" font-weight="bold" text-decoration="none" x="330.5" y="376">句长大于7的比例</text></g></g><g transform="translate(-102,-206) scale(1,1)"><path fill="#C0C0C0" stroke="none" d="M 311 440 C 311 430.6111584 344.8024976 423 386.5 423 C 428.1975024 423 462 430.6111584 462 440 C 462 449.3888416 428.1975024 457 386.5 457 C 344.8024976 457 311 449.3888416 311 440 Z" opacity="0.2"></path></g><g transform="translate(-102,-206) scale(1,1)"><path fill="#ffffff" stroke="none" d="M 304 433 C 304 423.6111584 337.8024976 416 379.5 416 C 421.1975024 416 455 423.6111584 455 433 C 455 442.3888416 421.1975024 450 379.5 450 C 337.8024976 450 304 442.3888416 304 433 Z"></path></g><g transform="translate(-102,-206) scale(1,1)"><path fill="none" stroke="#000000" d="M 304 433 C 304 423.6111584 337.8024976 416 379.5 416 C 421.1975024 416 455 423.6111584 455 433 C 455 442.3888416 421.1975024 450 379.5 450 C 337.8024976 450 304 442.3888416 304 433 Z" stroke-miterlimit="10"></path></g><g transform="translate(-102,-206) scale(1,1)"><g><path fill="none" stroke="none"></path><text fill="#000000" stroke="none" font-family="Arial" font-size="13px" font-style="normal" font-weight="bold" text-decoration="none" x="330.5" y="440">句长大于8的比例</text></g></g><g transform="translate(-102,-206) scale(1,1)"><path fill="#C0C0C0" stroke="none" d="M 311 504 C 311 494.6111584 344.8024976 487 386.5 487 C 428.1975024 487 462 494.6111584 462 504 C 462 513.3888416 428.1975024 521 386.5 521 C 344.8024976 521 311 513.3888416 311 504 Z" opacity="0.2"></path></g><g transform="translate(-102,-206) scale(1,1)"><path fill="#ffffff" stroke="none" d="M 304 497 C 304 487.6111584 337.8024976 480 379.5 480 C 421.1975024 480 455 487.6111584 455 497 C 455 506.3888416 421.1975024 514 379.5 514 C 337.8024976 514 304 506.3888416 304 497 Z"></path></g><g transform="translate(-102,-206) scale(1,1)"><path fill="none" stroke="#000000" d="M 304 497 C 304 487.6111584 337.8024976 480 379.5 480 C 421.1975024 480 455 487.6111584 455 497 C 455 506.3888416 421.1975024 514 379.5 514 C 337.8024976 514 304 506.3888416 304 497 Z" stroke-miterlimit="10"></path></g><g transform="translate(-102,-206) scale(1,1)"><g><path fill="none" stroke="none"></path><text fill="#000000" stroke="none" font-family="Arial" font-size="13px" font-style="normal" font-weight="bold" text-decoration="none" x="330.5" y="504">句长大于9的比例</text></g></g><g transform="translate(-102,-206) scale(1,1)"><path fill="none" stroke="#000000" d="M 174 347 L 325 251" stroke-miterlimit="10"></path></g><g transform="translate(-102,-206) scale(1,1)"><path fill="none" stroke="#000000" d="M 318.6822691994952 260.00479192054723 L 325 251 L 314.16534027905914 252.90003913944471" stroke-miterlimit="10"></path></g><g transform="translate(-102,-206) scale(1,1)"><path fill="none" stroke="#000000" d="M 174 358 L 303 320" stroke-miterlimit="10"></path></g><g transform="translate(-102,-206) scale(1,1)"><path fill="none" stroke="#000000" d="M 294.4409632830995 326.90962303448964 L 303 320 L 292.06200579392464 318.83368840018545" stroke-miterlimit="10"></path></g><g transform="translate(-102,-206) scale(1,1)"><path fill="none" stroke="#000000" d="M 174 367 L 303 368" stroke-miterlimit="10"></path></g><g transform="translate(-102,-206) scale(1,1)"><path fill="none" stroke="#000000" d="M 292.8049995389341 372.13061322310216 L 303 368 L 292.87026141926594 363.7118306602947" stroke-miterlimit="10"></path></g><g transform="translate(-102,-206) scale(1,1)"><path fill="none" stroke="#000000" d="M 174 376 L 314 415" stroke-miterlimit="10"></path></g><g transform="translate(-102,-206) scale(1,1)"><path fill="none" stroke="#000000" d="M 303.0804479921624 416.3279246771299 L 314 415 L 305.3397261836354 408.2176952718424" stroke-miterlimit="10"></path></g><g transform="translate(-102,-206) scale(1,1)"><path fill="none" stroke="#000000" d="M 174 385 L 346 479" stroke-miterlimit="10"></path></g><g transform="translate(-102,-206) scale(1,1)"><path fill="none" stroke="#000000" d="M 335.0634533159871 477.820192122248 L 346 479 L 339.10094382782694 470.43244352611543" stroke-miterlimit="10"></path></g></g></svg>