<svg version="1.1" xmlns="http://www.w3.org/2000/svg" xmlns:xlink="http://www.w3.org/1999/xlink" width="232" height="356"><defs></defs><g><g transform="translate(-174,-182) scale(1,1)"><path fill="#ffffff" stroke="none" d="M 296.5 192 L 350.5 192 Q 367 192 367 208.5 L 367 207.5 Q 367 224 350.5 224 L 296.5 224 Q 280 224 280 207.5 L 280 208.5 Q 280 192 296.5 192 Z"></path></g><g transform="translate(-174,-182) scale(1,1)"><path fill="none" stroke="#000000" d="M 296.5 192 L 350.5 192 Q 367 192 367 208.5 L 367 207.5 Q 367 224 350.5 224 L 296.5 224 Q 280 224 280 207.5 L 280 208.5 Q 280 192 296.5 192 Z" stroke-miterlimit="10"></path></g><g transform="translate(-174,-182) scale(1,1)"><g><path fill="none" stroke="none"></path><text fill="#000000" stroke="none" font-family="Arial" font-size="13px" font-style="normal" font-weight="normal" text-decoration="none" x="297.5" y="214.5">输入单词</text></g></g><g transform="translate(-174,-182) scale(1,1)"><rect fill="#ffffff" stroke="none" x="280" y="256" width="84" height="32"></rect></g><g transform="translate(-174,-182) scale(1,1)"><path fill="none" stroke="#000000" d="M 280 256 L 364 256 L 364 288 L 280 288 L 280 256 Z Z" stroke-miterlimit="10"></path></g><g transform="translate(-174,-182) scale(1,1)"><g><path fill="none" stroke="none"></path><text fill="#000000" stroke="none" font-family="Arial" font-size="13px" font-style="normal" font-weight="normal" text-decoration="none" x="289.5" y="278.5">遍历单词集</text></g></g><g transform="translate(-174,-182) scale(1,1)"><path fill="#ffffff" stroke="none" d="M 264 334.5 L 320.5 320 L 377 334.5 L 320.5 349 L 264 334.5"></path></g><g transform="translate(-174,-182) scale(1,1)"><path fill="none" stroke="#000000" d="M 264 334.5 L 320.5 320 L 377 334.5 L 320.5 349 L 264 334.5 L 264 334.5" stroke-miterlimit="10"></path></g><g transform="translate(-174,-182) scale(1,1)"><g><path fill="none" stroke="none"></path><text fill="#000000" stroke="none" font-family="Arial" font-size="13px" font-style="normal" font-weight="normal" text-decoration="none" x="294.5" y="341">是否相同</text></g></g><g transform="translate(-174,-182) scale(1,1)"><rect fill="#ffffff" stroke="none" x="184" y="384" width="74" height="32"></rect></g><g transform="translate(-174,-182) scale(1,1)"><path fill="none" stroke="#000000" d="M 184 384 L 258 384 L 258 416 L 184 416 L 184 384 Z Z" stroke-miterlimit="10"></path></g><g transform="translate(-174,-182) scale(1,1)"><g><path fill="none" stroke="none"></path><text fill="#000000" stroke="none" font-family="Arial" font-size="13px" font-style="normal" font-weight="normal" text-decoration="none" x="195" y="406.5">频率加一</text></g></g><g transform="translate(-174,-182) scale(1,1)"><path fill="none" stroke="#000000" d="M 323 224 L 323 256" stroke-miterlimit="10"></path></g><g transform="translate(-174,-182) scale(1,1)"><path fill="#000000" stroke="none" d="M 318.790482243984 245.83732514237585 L 323 256 L 327.209517756016 245.83732514237585"></path></g><g transform="translate(-174,-182) scale(1,1)"><path fill="none" stroke="#000000" d="M 318.790482243984 245.83732514237585 L 323 256 L 327.209517756016 245.83732514237585 L 318.790482243984 245.83732514237585" stroke-miterlimit="10"></path></g><g transform="translate(-174,-182) scale(1,1)"><path fill="none" stroke="#000000" d="M 322 288 L 322 320" stroke-miterlimit="10"></path></g><g transform="translate(-174,-182) scale(1,1)"><path fill="#000000" stroke="none" d="M 317.790482243984 309.83732514237585 L 322 320 L 326.209517756016 309.83732514237585"></path></g><g transform="translate(-174,-182) scale(1,1)"><path fill="none" stroke="#000000" d="M 317.790482243984 309.83732514237585 L 322 320 L 326.209517756016 309.83732514237585 L 317.790482243984 309.83732514237585" stroke-miterlimit="10"></path></g><g transform="translate(-174,-182) scale(1,1)"><path fill="none" stroke="#000000" d="M 264 336 L 232 336 M 232 336 A 8 8 0 0 0 224 344 L 224 384" stroke-miterlimit="10"></path></g><g transform="translate(-174,-182) scale(1,1)"><path fill="#000000" stroke="none" d="M 219.790482243984 373.83732514237585 L 224 384 L 228.209517756016 373.83732514237585"></path></g><g transform="translate(-174,-182) scale(1,1)"><path fill="none" stroke="#000000" d="M 219.790482243984 373.83732514237585 L 224 384 L 228.209517756016 373.83732514237585 L 219.790482243984 373.83732514237585" stroke-miterlimit="10"></path></g><g transform="translate(-174,-182) scale(1,1)"><rect fill="#ffffff" stroke="none" x="248" y="432" width="148" height="32"></rect></g><g transform="translate(-174,-182) scale(1,1)"><path fill="none" stroke="#000000" d="M 248 432 L 396 432 L 396 464 L 248 464 L 248 432 Z Z" stroke-miterlimit="10"></path></g><g transform="translate(-174,-182) scale(1,1)"><g><path fill="none" stroke="none"></path><text fill="#000000" stroke="none" font-family="Arial" font-size="13px" font-style="normal" font-weight="normal" text-decoration="none" x="257.5" y="454.5">权重公式=频率/总词数</text></g></g><g transform="translate(-174,-182) scale(1,1)"><path fill="none" stroke="#000000" d="M 321 349 L 321 432" stroke-miterlimit="10"></path></g><g transform="translate(-174,-182) scale(1,1)"><path fill="#000000" stroke="none" d="M 316.790482243984 421.83732514237585 L 321 432 L 325.209517756016 421.83732514237585"></path></g><g transform="translate(-174,-182) scale(1,1)"><path fill="none" stroke="#000000" d="M 316.790482243984 421.83732514237585 L 321 432 L 325.209517756016 421.83732514237585 L 316.790482243984 421.83732514237585" stroke-miterlimit="10"></path></g><g transform="translate(-174,-182) scale(1,1)"><g><path fill="none" stroke="none"></path><text fill="#000000" stroke="none" font-family="Arial" font-size="13px" font-style="normal" font-weight="normal" text-decoration="none" x="308.5" y="395.5">遍历结束</text></g></g><g transform="translate(-174,-182) scale(1,1)"><path fill="#ffffff" stroke="none" d="M 288.5 496 L 342.5 496 Q 359 496 359 512.5 L 359 511.5 Q 359 528 342.5 528 L 288.5 528 Q 272 528 272 511.5 L 272 512.5 Q 272 496 288.5 496 Z"></path></g><g transform="translate(-174,-182) scale(1,1)"><path fill="none" stroke="#000000" d="M 288.5 496 L 342.5 496 Q 359 496 359 512.5 L 359 511.5 Q 359 528 342.5 528 L 288.5 528 Q 272 528 272 511.5 L 272 512.5 Q 272 496 288.5 496 Z" stroke-miterlimit="10"></path></g><g transform="translate(-174,-182) scale(1,1)"><g><path fill="none" stroke="none"></path></g></g><g transform="translate(-174,-182) scale(1,1)"><path fill="none" stroke="#000000" d="M 320 464 L 320 496" stroke-miterlimit="10"></path></g><g transform="translate(-174,-182) scale(1,1)"><path fill="#000000" stroke="none" d="M 315.790482243984 485.83732514237585 L 320 496 L 324.209517756016 485.83732514237585"></path></g><g transform="translate(-174,-182) scale(1,1)"><path fill="none" stroke="#000000" d="M 315.790482243984 485.83732514237585 L 320 496 L 324.209517756016 485.83732514237585 L 315.790482243984 485.83732514237585" stroke-miterlimit="10"></path></g></g></svg>