<svg version="1.1" xmlns="http://www.w3.org/2000/svg" xmlns:xlink="http://www.w3.org/1999/xlink" width="892" height="748"><defs></defs><g><g transform="translate(2,10) scale(1,1)"><path fill="none" stroke="#000000" d="M 8 0 L 880 0 L 880 728 L 8 728 L 8 0" stroke-miterlimit="10"></path></g><g transform="translate(2,10) scale(1,1)"><path fill="#ffffff" stroke="none" d="M 8 0 L 8 22 L 136 22 L 147 11 L 147 0 L 8 0"></path></g><g transform="translate(2,10) scale(1,1)"><path fill="none" stroke="#000000" d="M 8 0 L 8 22 L 136 22 L 147 11 L 147 0 L 8 0 L 8 0" stroke-miterlimit="10"></path></g><g transform="translate(2,10) scale(1,1)"><g><path fill="none" stroke="none"></path><text fill="#000000" stroke="none" font-family="Arial" font-size="13px" font-style="normal" font-weight="normal" text-decoration="none" x="79" y="17.5">评分流程</text></g></g><g transform="translate(2,10) scale(1,1)"><g><path fill="none" stroke="none"></path><text fill="#000000" stroke="none" font-family="Arial" font-size="13px" font-style="normal" font-weight="bold" text-decoration="none" x="13" y="17.5">interaction</text></g></g><g transform="translate(2,10) scale(1,1)"><rect fill="#C0C0C0" stroke="none" x="63" y="47" width="97" height="39" opacity="0.2"></rect></g><g transform="translate(2,10) scale(1,1)"><rect fill="#ffffff" stroke="none" x="56" y="40" width="97" height="39"></rect></g><g transform="translate(2,10) scale(1,1)"><path fill="none" stroke="#000000" d="M 56 40 L 153 40 L 153 79 L 56 79 L 56 40 Z Z" stroke-miterlimit="10"></path></g><g transform="translate(2,10) scale(1,1)"><g><path fill="none" stroke="none"></path><text fill="#000000" stroke="none" font-family="Arial" font-size="13px" font-style="normal" font-weight="bold" text-decoration="none" x="91.5" y="59.5">文本</text></g></g><g transform="translate(2,10) scale(1,1)"><path fill="none" stroke="#000000" d="M 105.5 80 L 105.5 616" stroke-miterlimit="10" stroke-dasharray="3"></path></g><g transform="translate(2,10) scale(1,1)"><rect fill="#C0C0C0" stroke="none" x="191" y="47" width="97" height="39" opacity="0.2"></rect></g><g transform="translate(2,10) scale(1,1)"><rect fill="#ffffff" stroke="none" x="184" y="40" width="97" height="39"></rect></g><g transform="translate(2,10) scale(1,1)"><path fill="none" stroke="#000000" d="M 184 40 L 281 40 L 281 79 L 184 79 L 184 40 Z Z" stroke-miterlimit="10"></path></g><g transform="translate(2,10) scale(1,1)"><g><path fill="none" stroke="none"></path><text fill="#000000" stroke="none" font-family="Arial" font-size="13px" font-style="normal" font-weight="bold" text-decoration="none" x="200" y="59.5">中文分析器</text></g></g><g transform="translate(2,10) scale(1,1)"><path fill="none" stroke="#000000" d="M 233.5 80 L 233.5 616" stroke-miterlimit="10" stroke-dasharray="3"></path></g><g transform="translate(2,10) scale(1,1)"><rect fill="#C0C0C0" stroke="none" x="303" y="47" width="97" height="39" opacity="0.2"></rect></g><g transform="translate(2,10) scale(1,1)"><rect fill="#ffffff" stroke="none" x="296" y="40" width="97" height="39"></rect></g><g transform="translate(2,10) scale(1,1)"><path fill="none" stroke="#000000" d="M 296 40 L 393 40 L 393 79 L 296 79 L 296 40 Z Z" stroke-miterlimit="10"></path></g><g transform="translate(2,10) scale(1,1)"><g><path fill="none" stroke="none"></path><text fill="#000000" stroke="none" font-family="Arial" font-size="13px" font-style="normal" font-weight="bold" text-decoration="none" x="325" y="59.5">分词器</text></g></g><g transform="translate(2,10) scale(1,1)"><path fill="none" stroke="#000000" d="M 345.5 80 L 345.5 616" stroke-miterlimit="10" stroke-dasharray="3"></path></g><g transform="translate(2,10) scale(1,1)"><rect fill="#C0C0C0" stroke="none" x="415" y="47" width="97" height="39" opacity="0.2"></rect></g><g transform="translate(2,10) scale(1,1)"><rect fill="#ffffff" stroke="none" x="408" y="40" width="97" height="39"></rect></g><g transform="translate(2,10) scale(1,1)"><path fill="none" stroke="#000000" d="M 408 40 L 505 40 L 505 79 L 408 79 L 408 40 Z Z" stroke-miterlimit="10"></path></g><g transform="translate(2,10) scale(1,1)"><g><path fill="none" stroke="none"></path><text fill="#000000" stroke="none" font-family="Arial" font-size="13px" font-style="normal" font-weight="bold" text-decoration="none" x="430.5" y="59.5">评分模型</text></g></g><g transform="translate(2,10) scale(1,1)"><path fill="none" stroke="#000000" d="M 457.5 80 L 457.5 616" stroke-miterlimit="10" stroke-dasharray="3"></path></g><g transform="translate(2,10) scale(1,1)"><rect fill="#C0C0C0" stroke="none" x="535" y="47" width="97" height="39" opacity="0.2"></rect></g><g transform="translate(2,10) scale(1,1)"><rect fill="#ffffff" stroke="none" x="528" y="40" width="97" height="39"></rect></g><g transform="translate(2,10) scale(1,1)"><path fill="none" stroke="#000000" d="M 528 40 L 625 40 L 625 79 L 528 79 L 528 40 Z Z" stroke-miterlimit="10"></path></g><g transform="translate(2,10) scale(1,1)"><g><path fill="none" stroke="none"></path><text fill="#000000" stroke="none" font-family="Arial" font-size="13px" font-style="normal" font-weight="bold" text-decoration="none" x="537.5" y="59.5">篇章特征构建</text></g></g><g transform="translate(2,10) scale(1,1)"><path fill="none" stroke="#000000" d="M 577.5 80 L 577.5 616" stroke-miterlimit="10" stroke-dasharray="3"></path></g><g transform="translate(2,10) scale(1,1)"><rect fill="#C0C0C0" stroke="none" x="767" y="47" width="97" height="39" opacity="0.2"></rect></g><g transform="translate(2,10) scale(1,1)"><rect fill="#ffffff" stroke="none" x="760" y="40" width="97" height="39"></rect></g><g transform="translate(2,10) scale(1,1)"><path fill="none" stroke="#000000" d="M 760 40 L 857 40 L 857 79 L 760 79 L 760 40 Z Z" stroke-miterlimit="10"></path></g><g transform="translate(2,10) scale(1,1)"><g><path fill="none" stroke="none"></path><text fill="#000000" stroke="none" font-family="Arial" font-size="13px" font-style="normal" font-weight="bold" text-decoration="none" x="782.5" y="59.5">语义分析</text></g></g><g transform="translate(2,10) scale(1,1)"><path fill="none" stroke="#000000" d="M 809.5 80 L 809.5 616" stroke-miterlimit="10" stroke-dasharray="3"></path></g><g transform="translate(2,10) scale(1,1)"><rect fill="#C0C0C0" stroke="none" x="655" y="47" width="97" height="39" opacity="0.2"></rect></g><g transform="translate(2,10) scale(1,1)"><rect fill="#ffffff" stroke="none" x="648" y="40" width="97" height="39"></rect></g><g transform="translate(2,10) scale(1,1)"><path fill="none" stroke="#000000" d="M 648 40 L 745 40 L 745 79 L 648 79 L 648 40 Z Z" stroke-miterlimit="10"></path></g><g transform="translate(2,10) scale(1,1)"><g><path fill="none" stroke="none"></path><text fill="#000000" stroke="none" font-family="Arial" font-size="13px" font-style="normal" font-weight="bold" text-decoration="none" x="670.5" y="59.5">主题分析</text></g></g><g transform="translate(2,10) scale(1,1)"><path fill="none" stroke="#000000" d="M 697.5 80 L 697.5 624" stroke-miterlimit="10" stroke-dasharray="3"></path></g><g transform="translate(2,10) scale(1,1)"><path fill="none" stroke="#000000" d="M 105 105 L 226 105" stroke-miterlimit="10"></path></g><g transform="translate(2,10) scale(1,1)"><path fill="#000000" stroke="none" d="M 215.83732514237585 109.20951775601598 L 226 105 L 215.83732514237585 100.79048224398402"></path></g><g transform="translate(2,10) scale(1,1)"><path fill="none" stroke="#000000" d="M 215.83732514237585 109.20951775601598 L 226 105 L 215.83732514237585 100.79048224398402 L 215.83732514237585 109.20951775601598" stroke-miterlimit="10"></path></g><g transform="translate(2,10) scale(1,1)"><g><path fill="none" stroke="none"></path><text fill="#000000" stroke="none" font-family="Arial" font-size="13px" font-style="normal" font-weight="normal" text-decoration="none" x="129.5" y="101.5">1 : 文本评分</text></g></g><g transform="translate(2,10) scale(1,1)"><rect fill="#ffffff" stroke="none" x="226" y="105" width="13" height="439"></rect></g><g transform="translate(2,10) scale(1,1)"><path fill="none" stroke="#000000" d="M 226 105 L 239 105 L 239 544 L 226 544 L 226 105 Z Z" stroke-miterlimit="10"></path></g><g transform="translate(2,10) scale(1,1)"><path fill="none" stroke="#000000" d="M 239 128 L 338 128" stroke-miterlimit="10"></path></g><g transform="translate(2,10) scale(1,1)"><path fill="#000000" stroke="none" d="M 327.83732514237585 132.209517756016 L 338 128 L 327.83732514237585 123.79048224398402"></path></g><g transform="translate(2,10) scale(1,1)"><path fill="none" stroke="#000000" d="M 327.83732514237585 132.209517756016 L 338 128 L 327.83732514237585 123.79048224398402 L 327.83732514237585 132.209517756016" stroke-miterlimit="10"></path></g><g transform="translate(2,10) scale(1,1)"><g><path fill="none" stroke="none"></path><text fill="#000000" stroke="none" font-family="Arial" font-size="13px" font-style="normal" font-weight="normal" text-decoration="none" x="252.5" y="124.5">2 : 中文分词</text></g></g><g transform="translate(2,10) scale(1,1)"><rect fill="#ffffff" stroke="none" x="338" y="128" width="13" height="64"></rect></g><g transform="translate(2,10) scale(1,1)"><path fill="none" stroke="#000000" d="M 338 128 L 351 128 L 351 192 L 338 192 L 338 128 Z Z" stroke-miterlimit="10"></path></g><g transform="translate(2,10) scale(1,1)"><path fill="none" stroke="#000000" d="M 338 188 L 239 188" stroke-miterlimit="10" stroke-dasharray="3"></path></g><g transform="translate(2,10) scale(1,1)"><path fill="none" stroke="#000000" d="M 249.16267485762415 183.790482243984 L 239 188 L 249.16267485762415 192.209517756016" stroke-miterlimit="10"></path></g><g transform="translate(2,10) scale(1,1)"><g><path fill="none" stroke="none"></path><text fill="#000000" stroke="none" font-family="Arial" font-size="13px" font-style="normal" font-weight="normal" text-decoration="none" x="251.5" y="204.5">3 : 得到词集</text></g></g><g transform="translate(2,10) scale(1,1)"><path fill="none" stroke="#000000" d="M 239 232 L 450 232" stroke-miterlimit="10"></path></g><g transform="translate(2,10) scale(1,1)"><path fill="#000000" stroke="none" d="M 439.83732514237585 236.209517756016 L 450 232 L 439.83732514237585 227.790482243984"></path></g><g transform="translate(2,10) scale(1,1)"><path fill="none" stroke="#000000" d="M 439.83732514237585 236.209517756016 L 450 232 L 439.83732514237585 227.790482243984 L 439.83732514237585 236.209517756016" stroke-miterlimit="10"></path></g><g transform="translate(2,10) scale(1,1)"><g><path fill="none" stroke="none"></path><text fill="#000000" stroke="none" font-family="Arial" font-size="13px" font-style="normal" font-weight="normal" text-decoration="none" x="295.5" y="228.5">4 : 建立评分标准</text></g></g><g transform="translate(2,10) scale(1,1)"><rect fill="#ffffff" stroke="none" x="450" y="232" width="13" height="296"></rect></g><g transform="translate(2,10) scale(1,1)"><path fill="none" stroke="#000000" d="M 450 232 L 463 232 L 463 528 L 450 528 L 450 232 Z Z" stroke-miterlimit="10"></path></g><g transform="translate(2,10) scale(1,1)"><path fill="none" stroke="#000000" d="M 463 256 L 570 256" stroke-miterlimit="10"></path></g><g transform="translate(2,10) scale(1,1)"><path fill="none" stroke="#000000" d="M 559.8373251423759 260.209517756016 L 570 256 L 559.8373251423758 251.790482243984" stroke-miterlimit="10"></path></g><g transform="translate(2,10) scale(1,1)"><g><path fill="none" stroke="none"></path><text fill="#000000" stroke="none" font-family="Arial" font-size="13px" font-style="normal" font-weight="normal" text-decoration="none" x="467" y="252.5">5 : 浅层语言特征</text></g></g><g transform="translate(2,10) scale(1,1)"><rect fill="#ffffff" stroke="none" x="570" y="256" width="13" height="75"></rect></g><g transform="translate(2,10) scale(1,1)"><path fill="none" stroke="#000000" d="M 570 256 L 583 256 L 583 331 L 570 331 L 570 256 Z Z" stroke-miterlimit="10"></path></g><g transform="translate(2,10) scale(1,1)"><path fill="none" stroke="#000000" d="M 583 280 L 613 280 L 613 300 L 590 300" stroke-miterlimit="10"></path></g><g transform="translate(2,10) scale(1,1)"><path fill="#000000" stroke="none" d="M 600.1626748576241 295.790482243984 L 590 300 L 600.1626748576241 304.209517756016"></path></g><g transform="translate(2,10) scale(1,1)"><path fill="none" stroke="#000000" d="M 600.1626748576241 295.790482243984 L 590 300 L 600.1626748576241 304.209517756016 L 600.1626748576241 295.790482243984" stroke-miterlimit="10"></path></g><g transform="translate(2,10) scale(1,1)"><g><path fill="none" stroke="none"></path><text fill="#000000" stroke="none" font-family="Arial" font-size="13px" font-style="normal" font-weight="normal" text-decoration="none" x="586.5" y="295.5">6 : 特征评分</text></g></g><g transform="translate(2,10) scale(1,1)"><rect fill="#ffffff" stroke="none" x="577" y="300" width="13" height="28"></rect></g><g transform="translate(2,10) scale(1,1)"><path fill="none" stroke="#000000" d="M 577 300 L 590 300 L 590 328 L 577 328 L 577 300 Z Z" stroke-miterlimit="10"></path></g><g transform="translate(2,10) scale(1,1)"><path fill="none" stroke="#000000" d="M 577 320 L 463 320" stroke-miterlimit="10" stroke-dasharray="3"></path></g><g transform="translate(2,10) scale(1,1)"><path fill="none" stroke="#000000" d="M 473.16267485762415 315.790482243984 L 463 320 L 473.16267485762415 324.209517756016" stroke-miterlimit="10"></path></g><g transform="translate(2,10) scale(1,1)"><g><path fill="none" stroke="none"></path><text fill="#000000" stroke="none" font-family="Arial" font-size="13px" font-style="normal" font-weight="normal" text-decoration="none" x="483.5" y="336.5">7 : 篇章得分</text></g></g><g transform="translate(2,10) scale(1,1)"><path fill="none" stroke="#000000" d="M 463 360 L 690 360" stroke-miterlimit="10"></path></g><g transform="translate(2,10) scale(1,1)"><path fill="#000000" stroke="none" d="M 679.8373251423759 364.209517756016 L 690 360 L 679.8373251423758 355.790482243984"></path></g><g transform="translate(2,10) scale(1,1)"><path fill="none" stroke="#000000" d="M 679.8373251423759 364.209517756016 L 690 360 L 679.8373251423758 355.790482243984 L 679.8373251423759 364.209517756016" stroke-miterlimit="10"></path></g><g transform="translate(2,10) scale(1,1)"><g><path fill="none" stroke="none"></path><text fill="#000000" stroke="none" font-family="Arial" font-size="13px" font-style="normal" font-weight="normal" text-decoration="none" x="533.5" y="356.5">8 : 关键词抽取</text></g></g><g transform="translate(2,10) scale(1,1)"><rect fill="#ffffff" stroke="none" x="690" y="360" width="13" height="28"></rect></g><g transform="translate(2,10) scale(1,1)"><path fill="none" stroke="#000000" d="M 690 360 L 703 360 L 703 388 L 690 388 L 690 360 Z Z" stroke-miterlimit="10"></path></g><g transform="translate(2,10) scale(1,1)"><path fill="none" stroke="#000000" d="M 697 389 L 463 389" stroke-miterlimit="10" stroke-dasharray="3"></path></g><g transform="translate(2,10) scale(1,1)"><path fill="none" stroke="#000000" d="M 473.16267485762415 384.790482243984 L 463 389 L 473.16267485762415 393.209517756016" stroke-miterlimit="10"></path></g><g transform="translate(2,10) scale(1,1)"><g><path fill="none" stroke="none"></path><text fill="#000000" stroke="none" font-family="Arial" font-size="13px" font-style="normal" font-weight="normal" text-decoration="none" x="543.5" y="405.5">9 : 关键词集</text></g></g><g transform="translate(2,10) scale(1,1)"><path fill="none" stroke="#000000" d="M 463 424 L 690 424" stroke-miterlimit="10"></path></g><g transform="translate(2,10) scale(1,1)"><path fill="#000000" stroke="none" d="M 679.8373251423759 428.209517756016 L 690 424 L 679.8373251423758 419.790482243984"></path></g><g transform="translate(2,10) scale(1,1)"><path fill="none" stroke="#000000" d="M 679.8373251423759 428.209517756016 L 690 424 L 679.8373251423758 419.790482243984 L 679.8373251423759 428.209517756016" stroke-miterlimit="10"></path></g><g transform="translate(2,10) scale(1,1)"><g><path fill="none" stroke="none"></path><text fill="#000000" stroke="none" font-family="Arial" font-size="13px" font-style="normal" font-weight="normal" text-decoration="none" x="536.5" y="420.5">10 : 生成摘要</text></g></g><g transform="translate(2,10) scale(1,1)"><rect fill="#ffffff" stroke="none" x="690" y="424" width="13" height="28"></rect></g><g transform="translate(2,10) scale(1,1)"><path fill="none" stroke="#000000" d="M 690 424 L 703 424 L 703 452 L 690 452 L 690 424 Z Z" stroke-miterlimit="10"></path></g><g transform="translate(2,10) scale(1,1)"><path fill="none" stroke="#000000" d="M 697 452 L 463 452" stroke-miterlimit="10" stroke-dasharray="3"></path></g><g transform="translate(2,10) scale(1,1)"><path fill="none" stroke="#000000" d="M 473.16267485762415 447.790482243984 L 463 452 L 473.16267485762415 456.209517756016" stroke-miterlimit="10"></path></g><g transform="translate(2,10) scale(1,1)"><g><path fill="none" stroke="none"></path><text fill="#000000" stroke="none" font-family="Arial" font-size="13px" font-style="normal" font-weight="normal" text-decoration="none" x="539.5" y="468.5">11 : 摘要句子</text></g></g><g transform="translate(2,10) scale(1,1)"><path fill="none" stroke="#000000" d="M 463 480 L 802 480" stroke-miterlimit="10"></path></g><g transform="translate(2,10) scale(1,1)"><path fill="#000000" stroke="none" d="M 791.8373251423759 484.209517756016 L 802 480 L 791.8373251423758 475.790482243984"></path></g><g transform="translate(2,10) scale(1,1)"><path fill="none" stroke="#000000" d="M 791.8373251423759 484.209517756016 L 802 480 L 791.8373251423758 475.790482243984 L 791.8373251423759 484.209517756016" stroke-miterlimit="10"></path></g><g transform="translate(2,10) scale(1,1)"><g><path fill="none" stroke="none"></path><text fill="#000000" stroke="none" font-family="Arial" font-size="13px" font-style="normal" font-weight="normal" text-decoration="none" x="563.5" y="500.5">12 : 文本相似度分析</text></g></g><g transform="translate(2,10) scale(1,1)"><rect fill="#ffffff" stroke="none" x="802" y="480" width="13" height="28"></rect></g><g transform="translate(2,10) scale(1,1)"><path fill="none" stroke="#000000" d="M 802 480 L 815 480 L 815 508 L 802 508 L 802 480 Z Z" stroke-miterlimit="10"></path></g><g transform="translate(2,10) scale(1,1)"><path fill="none" stroke="#000000" d="M 802 504 L 463 504" stroke-miterlimit="10" stroke-dasharray="3"></path></g><g transform="translate(2,10) scale(1,1)"><path fill="none" stroke="#000000" d="M 473.16267485762415 499.790482243984 L 463 504 L 473.16267485762415 508.209517756016" stroke-miterlimit="10"></path></g><g transform="translate(2,10) scale(1,1)"><g><path fill="none" stroke="none"></path><text fill="#000000" stroke="none" font-family="Arial" font-size="13px" font-style="normal" font-weight="normal" text-decoration="none" x="596.5" y="520.5">13 : TF  IDF</text></g></g><g transform="translate(2,10) scale(1,1)"><path fill="none" stroke="#000000" d="M 450 524 L 239 524" stroke-miterlimit="10" stroke-dasharray="3"></path></g><g transform="translate(2,10) scale(1,1)"><path fill="none" stroke="#000000" d="M 249.16267485762415 519.790482243984 L 239 524 L 249.16267485762415 528.209517756016" stroke-miterlimit="10"></path></g><g transform="translate(2,10) scale(1,1)"><g><path fill="none" stroke="none"></path><text fill="#000000" stroke="none" font-family="Arial" font-size="13px" font-style="normal" font-weight="normal" text-decoration="none" x="303.5" y="540.5">14 : 综合得分</text></g></g><g transform="translate(2,10) scale(1,1)"><path fill="none" stroke="#000000" d="M 226 536 L 105 536" stroke-miterlimit="10" stroke-dasharray="3"></path></g><g transform="translate(2,10) scale(1,1)"><path fill="none" stroke="#000000" d="M 115.16267485762415 531.790482243984 L 105 536 L 115.16267485762415 540.209517756016" stroke-miterlimit="10"></path></g><g transform="translate(2,10) scale(1,1)"><g><path fill="none" stroke="none"></path><text fill="#000000" stroke="none" font-family="Arial" font-size="13px" font-style="normal" font-weight="normal" text-decoration="none" x="111.5" y="552.5">15 : 保存得分文本</text></g></g></g></svg>