<svg version="1.1" xmlns="http://www.w3.org/2000/svg" xmlns:xlink="http://www.w3.org/1999/xlink" width="317" height="314"><defs></defs><g><g transform="translate(-10,-120) scale(1,1)"><path fill="#ffffff" stroke="none" d="M 277.82072727272725 241.68 C 277.82072727272725 236.886167936 281.70656959767274 233 286.5 233 C 291.29343040232726 233 295.17927272727275 236.886167936 295.17927272727275 241.68 C 295.17927272727275 246.47383206400002 291.29343040232726 250.36 286.5 250.36 C 281.70656959767274 250.36 277.82072727272725 246.47383206400002 277.82072727272725 241.68 Z"></path></g><g transform="translate(-10,-120) scale(1,1)"><path fill="none" stroke="#000000" d="M 277.82072727272725 241.68 C 277.82072727272725 236.886167936 281.70656959767274 233 286.5 233 C 291.29343040232726 233 295.17927272727275 236.886167936 295.17927272727275 241.68 C 295.17927272727275 246.47383206400002 291.29343040232726 250.36 286.5 250.36 C 281.70656959767274 250.36 277.82072727272725 246.47383206400002 277.82072727272725 241.68 Z" stroke-miterlimit="10"></path></g><g transform="translate(-10,-120) scale(1,1)"><path fill="none" stroke="#000000" d="M 286.5 250.36 L 286.5 267.64" stroke-miterlimit="10"></path></g><g transform="translate(-10,-120) scale(1,1)"><path fill="none" stroke="#000000" d="M 277.31018181818183 256.84 L 295.68981818181817 256.84" stroke-miterlimit="10"></path></g><g transform="translate(-10,-120) scale(1,1)"><path fill="none" stroke="#000000" d="M 286.5 267.64 L 273.73636363636365 285" stroke-miterlimit="10"></path></g><g transform="translate(-10,-120) scale(1,1)"><path fill="none" stroke="#000000" d="M 286.5 267.64 L 299.26363636363635 285" stroke-miterlimit="10"></path></g><g transform="translate(-10,-120) scale(1,1)"><g><path fill="none" stroke="none"></path><text fill="#000000" stroke="none" font-family="Arial" font-size="13px" font-style="normal" font-weight="bold" text-decoration="none" x="260.5" y="305.5">词长特征</text></g></g><g transform="translate(-10,-120) scale(1,1)"><path fill="#C0C0C0" stroke="none" d="M 34.5 154 C 34.5 144.6111584 56.6619024 137 84 137 C 111.3380976 137 133.5 144.6111584 133.5 154 C 133.5 163.3888416 111.3380976 171 84 171 C 56.6619024 171 34.5 163.3888416 34.5 154 Z" opacity="0.2"></path></g><g transform="translate(-10,-120) scale(1,1)"><path fill="#ffffff" stroke="none" d="M 27.5 147 C 27.5 137.6111584 49.6619024 130 77 130 C 104.3380976 130 126.5 137.6111584 126.5 147 C 126.5 156.3888416 104.3380976 164 77 164 C 49.6619024 164 27.5 156.3888416 27.5 147 Z"></path></g><g transform="translate(-10,-120) scale(1,1)"><path fill="none" stroke="#000000" d="M 27.5 147 C 27.5 137.6111584 49.6619024 130 77 130 C 104.3380976 130 126.5 137.6111584 126.5 147 C 126.5 156.3888416 104.3380976 164 77 164 C 49.6619024 164 27.5 156.3888416 27.5 147 Z" stroke-miterlimit="10"></path></g><g transform="translate(-10,-120) scale(1,1)"><g><path fill="none" stroke="none"></path><text fill="#000000" stroke="none" font-family="Arial" font-size="13px" font-style="normal" font-weight="bold" text-decoration="none" x="51" y="154">平均词长</text></g></g><g transform="translate(-10,-120) scale(1,1)"><path fill="#C0C0C0" stroke="none" d="M 27 219 C 27 209.6111584 52.519766399999995 202 84 202 C 115.4802336 202 141 209.6111584 141 219 C 141 228.3888416 115.4802336 236 84 236 C 52.519766399999995 236 27 228.3888416 27 219 Z" opacity="0.2"></path></g><g transform="translate(-10,-120) scale(1,1)"><path fill="#ffffff" stroke="none" d="M 20 212 C 20 202.6111584 45.519766399999995 195 77 195 C 108.4802336 195 134 202.6111584 134 212 C 134 221.3888416 108.4802336 229 77 229 C 45.519766399999995 229 20 221.3888416 20 212 Z"></path></g><g transform="translate(-10,-120) scale(1,1)"><path fill="none" stroke="#000000" d="M 20 212 C 20 202.6111584 45.519766399999995 195 77 195 C 108.4802336 195 134 202.6111584 134 212 C 134 221.3888416 108.4802336 229 77 229 C 45.519766399999995 229 20 221.3888416 20 212 Z" stroke-miterlimit="10"></path></g><g transform="translate(-10,-120) scale(1,1)"><g><path fill="none" stroke="none"></path><text fill="#000000" stroke="none" font-family="Arial" font-size="13px" font-style="normal" font-weight="bold" text-decoration="none" x="41" y="219">词长为1占比</text></g></g><g transform="translate(-10,-120) scale(1,1)"><path fill="#C0C0C0" stroke="none" d="M 27 284 C 27 274.6111584 52.519766399999995 267 84 267 C 115.4802336 267 141 274.6111584 141 284 C 141 293.3888416 115.4802336 301 84 301 C 52.519766399999995 301 27 293.3888416 27 284 Z" opacity="0.2"></path></g><g transform="translate(-10,-120) scale(1,1)"><path fill="#ffffff" stroke="none" d="M 20 277 C 20 267.6111584 45.519766399999995 260 77 260 C 108.4802336 260 134 267.6111584 134 277 C 134 286.3888416 108.4802336 294 77 294 C 45.519766399999995 294 20 286.3888416 20 277 Z"></path></g><g transform="translate(-10,-120) scale(1,1)"><path fill="none" stroke="#000000" d="M 20 277 C 20 267.6111584 45.519766399999995 260 77 260 C 108.4802336 260 134 267.6111584 134 277 C 134 286.3888416 108.4802336 294 77 294 C 45.519766399999995 294 20 286.3888416 20 277 Z" stroke-miterlimit="10"></path></g><g transform="translate(-10,-120) scale(1,1)"><g><path fill="none" stroke="none"></path><text fill="#000000" stroke="none" font-family="Arial" font-size="13px" font-style="normal" font-weight="bold" text-decoration="none" x="41" y="284">词长为2占比</text></g></g><g transform="translate(-10,-120) scale(1,1)"><path fill="#C0C0C0" stroke="none" d="M 27 349 C 27 339.6111584 52.519766399999995 332 84 332 C 115.4802336 332 141 339.6111584 141 349 C 141 358.3888416 115.4802336 366 84 366 C 52.519766399999995 366 27 358.3888416 27 349 Z" opacity="0.2"></path></g><g transform="translate(-10,-120) scale(1,1)"><path fill="#ffffff" stroke="none" d="M 20 342 C 20 332.6111584 45.519766399999995 325 77 325 C 108.4802336 325 134 332.6111584 134 342 C 134 351.3888416 108.4802336 359 77 359 C 45.519766399999995 359 20 351.3888416 20 342 Z"></path></g><g transform="translate(-10,-120) scale(1,1)"><path fill="none" stroke="#000000" d="M 20 342 C 20 332.6111584 45.519766399999995 325 77 325 C 108.4802336 325 134 332.6111584 134 342 C 134 351.3888416 108.4802336 359 77 359 C 45.519766399999995 359 20 351.3888416 20 342 Z" stroke-miterlimit="10"></path></g><g transform="translate(-10,-120) scale(1,1)"><g><path fill="none" stroke="none"></path><text fill="#000000" stroke="none" font-family="Arial" font-size="13px" font-style="normal" font-weight="bold" text-decoration="none" x="41" y="349">词长为3占比</text></g></g><g transform="translate(-10,-120) scale(1,1)"><path fill="#C0C0C0" stroke="none" d="M 27 414 C 27 404.6111584 52.519766399999995 397 84 397 C 115.4802336 397 141 404.6111584 141 414 C 141 423.3888416 115.4802336 431 84 431 C 52.519766399999995 431 27 423.3888416 27 414 Z" opacity="0.2"></path></g><g transform="translate(-10,-120) scale(1,1)"><path fill="#ffffff" stroke="none" d="M 20 407 C 20 397.6111584 45.519766399999995 390 77 390 C 108.4802336 390 134 397.6111584 134 407 C 134 416.3888416 108.4802336 424 77 424 C 45.519766399999995 424 20 416.3888416 20 407 Z"></path></g><g transform="translate(-10,-120) scale(1,1)"><path fill="none" stroke="#000000" d="M 20 407 C 20 397.6111584 45.519766399999995 390 77 390 C 108.4802336 390 134 397.6111584 134 407 C 134 416.3888416 108.4802336 424 77 424 C 45.519766399999995 424 20 416.3888416 20 407 Z" stroke-miterlimit="10"></path></g><g transform="translate(-10,-120) scale(1,1)"><g><path fill="none" stroke="none"></path><text fill="#000000" stroke="none" font-family="Arial" font-size="13px" font-style="normal" font-weight="bold" text-decoration="none" x="41" y="414">词长为4占比</text></g></g><g transform="translate(-10,-120) scale(1,1)"><path fill="none" stroke="#000000" d="M 255 253 L 107 165" stroke-miterlimit="10"></path></g><g transform="translate(-10,-120) scale(1,1)"><path fill="none" stroke="#000000" d="M 117.88656469939244 166.57566146298706 L 107 165 L 113.58380281743402 173.81212462809896" stroke-miterlimit="10"></path></g><g transform="translate(-10,-120) scale(1,1)"><path fill="none" stroke="#000000" d="M 255 262 L 135 228" stroke-miterlimit="10"></path></g><g transform="translate(-10,-120) scale(1,1)"><path fill="none" stroke="#000000" d="M 145.92530646046285 226.72028177126037 L 135 228 L 143.63025572228432 234.82046084718465" stroke-miterlimit="10"></path></g><g transform="translate(-10,-120) scale(1,1)"><path fill="none" stroke="#000000" d="M 255 272 L 135 275" stroke-miterlimit="10"></path></g><g transform="translate(-10,-120) scale(1,1)"><path fill="none" stroke="#000000" d="M 145.05429543717867 270.5378095892344 L 135 275 L 145.26470558207993 278.9542153852841" stroke-miterlimit="10"></path></g><g transform="translate(-10,-120) scale(1,1)"><path fill="none" stroke="#000000" d="M 255 282 L 130 324" stroke-miterlimit="10"></path></g><g transform="translate(-10,-120) scale(1,1)"><path fill="none" stroke="#000000" d="M 138.29268616104522 316.7728735838918 L 130 324 L 140.97416471604944 324.7534645214044" stroke-miterlimit="10"></path></g><g transform="translate(-10,-120) scale(1,1)"><path fill="none" stroke="#000000" d="M 255 291 L 105 389" stroke-miterlimit="10"></path></g><g transform="translate(-10,-120) scale(1,1)"><path fill="none" stroke="#000000" d="M 111.20545811653471 379.9174733931613 L 105 389 L 115.8102376685737 386.9656053605679" stroke-miterlimit="10"></path></g></g></svg>